<mxfile host="app.diagrams.net" modified="2021-11-14T13:02:50.327Z" agent="5.0 (Windows NT 10.0; Win64; x64) AppleWebKit/537.36 (KHTML, like Gecko) Chrome/94.0.4606.85 YaBrowser/21.11.0.1996 Yowser/2.5 Safari/537.36" etag="GkGT1hgw2p8Ft5H16Fij" version="15.5.5" type="github">
  <diagram id="dF9T35ieNSY8kNzjUWbx" name="Page-1">
    <mxGraphModel dx="1028" dy="536" grid="1" gridSize="10" guides="1" tooltips="1" connect="1" arrows="1" fold="1" page="1" pageScale="1" pageWidth="827" pageHeight="1169" math="0" shadow="0">
      <root>
        <mxCell id="0" />
        <mxCell id="1" parent="0" />
        <mxCell id="OYj0gJ4Lvq-_R3bEyNbc-5" value="" style="edgeStyle=orthogonalEdgeStyle;rounded=0;orthogonalLoop=1;jettySize=auto;html=1;fontColor=#33001A;entryX=0.75;entryY=0;entryDx=0;entryDy=0;" edge="1" parent="1" source="OYj0gJ4Lvq-_R3bEyNbc-1" target="OYj0gJ4Lvq-_R3bEyNbc-42">
          <mxGeometry relative="1" as="geometry">
            <mxPoint x="380" y="320" as="targetPoint" />
          </mxGeometry>
        </mxCell>
        <mxCell id="OYj0gJ4Lvq-_R3bEyNbc-1" value="&lt;pre&gt;&lt;font color=&quot;#33001a&quot; face=&quot;jetbrains mono, monospace&quot;&gt;MOM CHEWS TOBACCO&lt;/font&gt;&lt;font face=&quot;jetbrains mono, monospace&quot;&gt;&lt;br&gt;&lt;/font&gt;&lt;/pre&gt;" style="rounded=1;whiteSpace=wrap;html=1;" vertex="1" parent="1">
          <mxGeometry x="320" y="130" width="120" height="60" as="geometry" />
        </mxCell>
        <mxCell id="OYj0gJ4Lvq-_R3bEyNbc-6" value="3" style="text;html=1;strokeColor=none;fillColor=none;align=center;verticalAlign=middle;whiteSpace=wrap;rounded=0;labelBackgroundColor=#FFFFFF;fontColor=#33001A;" vertex="1" parent="1">
          <mxGeometry x="473.75" y="310" width="20" height="20" as="geometry" />
        </mxCell>
        <mxCell id="OYj0gJ4Lvq-_R3bEyNbc-8" value="3" style="text;html=1;strokeColor=none;fillColor=none;align=center;verticalAlign=middle;whiteSpace=wrap;rounded=0;labelBackgroundColor=#FFFFFF;fontColor=#33001A;" vertex="1" parent="1">
          <mxGeometry x="501.25" y="310" width="20" height="20" as="geometry" />
        </mxCell>
        <mxCell id="OYj0gJ4Lvq-_R3bEyNbc-9" value="2" style="text;html=1;strokeColor=none;fillColor=none;align=center;verticalAlign=middle;whiteSpace=wrap;rounded=0;labelBackgroundColor=#FFFFFF;fontColor=#33001A;" vertex="1" parent="1">
          <mxGeometry x="446.25" y="310" width="20" height="20" as="geometry" />
        </mxCell>
        <mxCell id="OYj0gJ4Lvq-_R3bEyNbc-11" value="1" style="text;html=1;strokeColor=none;fillColor=none;align=center;verticalAlign=middle;whiteSpace=wrap;rounded=0;labelBackgroundColor=#FFFFFF;fontColor=#33001A;" vertex="1" parent="1">
          <mxGeometry x="281.25" y="310" width="20" height="20" as="geometry" />
        </mxCell>
        <mxCell id="OYj0gJ4Lvq-_R3bEyNbc-15" value="1" style="text;html=1;strokeColor=none;fillColor=none;align=center;verticalAlign=middle;whiteSpace=wrap;rounded=0;labelBackgroundColor=#FFFFFF;fontColor=#33001A;" vertex="1" parent="1">
          <mxGeometry x="308.75" y="310" width="20" height="20" as="geometry" />
        </mxCell>
        <mxCell id="OYj0gJ4Lvq-_R3bEyNbc-16" value="2" style="text;html=1;strokeColor=none;fillColor=none;align=center;verticalAlign=middle;whiteSpace=wrap;rounded=0;labelBackgroundColor=#FFFFFF;fontColor=#33001A;" vertex="1" parent="1">
          <mxGeometry x="418.75" y="310" width="20" height="20" as="geometry" />
        </mxCell>
        <mxCell id="OYj0gJ4Lvq-_R3bEyNbc-37" value="A" style="rounded=0;whiteSpace=wrap;html=1;labelBackgroundColor=#FFFFFF;fontColor=#33001A;" vertex="1" parent="1">
          <mxGeometry x="222.5" y="270" width="27.5" height="40" as="geometry" />
        </mxCell>
        <mxCell id="OYj0gJ4Lvq-_R3bEyNbc-38" value="B" style="rounded=0;whiteSpace=wrap;html=1;labelBackgroundColor=#FFFFFF;fontColor=#33001A;" vertex="1" parent="1">
          <mxGeometry x="250" y="270" width="27.5" height="40" as="geometry" />
        </mxCell>
        <mxCell id="OYj0gJ4Lvq-_R3bEyNbc-39" value="T" style="rounded=0;whiteSpace=wrap;html=1;labelBackgroundColor=#FFFFFF;fontColor=#33001A;" vertex="1" parent="1">
          <mxGeometry x="277.5" y="270" width="27.5" height="40" as="geometry" />
        </mxCell>
        <mxCell id="OYj0gJ4Lvq-_R3bEyNbc-40" value="S" style="rounded=0;whiteSpace=wrap;html=1;labelBackgroundColor=#FFFFFF;fontColor=#33001A;" vertex="1" parent="1">
          <mxGeometry x="305" y="270" width="27.5" height="40" as="geometry" />
        </mxCell>
        <mxCell id="OYj0gJ4Lvq-_R3bEyNbc-41" value="W" style="rounded=0;whiteSpace=wrap;html=1;labelBackgroundColor=#FFFFFF;fontColor=#33001A;" vertex="1" parent="1">
          <mxGeometry x="332.5" y="270" width="27.5" height="40" as="geometry" />
        </mxCell>
        <mxCell id="OYj0gJ4Lvq-_R3bEyNbc-42" value="E" style="rounded=0;whiteSpace=wrap;html=1;labelBackgroundColor=#FFFFFF;fontColor=#33001A;" vertex="1" parent="1">
          <mxGeometry x="360" y="270" width="27.5" height="40" as="geometry" />
        </mxCell>
        <mxCell id="OYj0gJ4Lvq-_R3bEyNbc-43" value="H" style="rounded=0;whiteSpace=wrap;html=1;labelBackgroundColor=#FFFFFF;fontColor=#33001A;" vertex="1" parent="1">
          <mxGeometry x="387.5" y="270" width="27.5" height="40" as="geometry" />
        </mxCell>
        <mxCell id="OYj0gJ4Lvq-_R3bEyNbc-45" value="M" style="rounded=0;whiteSpace=wrap;html=1;labelBackgroundColor=#FFFFFF;fontColor=#33001A;" vertex="1" parent="1">
          <mxGeometry x="415" y="270" width="27.5" height="40" as="geometry" />
        </mxCell>
        <mxCell id="OYj0gJ4Lvq-_R3bEyNbc-46" value="&#39; &#39;" style="rounded=0;whiteSpace=wrap;html=1;labelBackgroundColor=#FFFFFF;fontColor=#33001A;" vertex="1" parent="1">
          <mxGeometry x="442.5" y="270" width="27.5" height="40" as="geometry" />
        </mxCell>
        <mxCell id="OYj0gJ4Lvq-_R3bEyNbc-47" value="C" style="rounded=0;whiteSpace=wrap;html=1;labelBackgroundColor=#FFFFFF;fontColor=#33001A;" vertex="1" parent="1">
          <mxGeometry x="470" y="270" width="27.5" height="40" as="geometry" />
        </mxCell>
        <mxCell id="OYj0gJ4Lvq-_R3bEyNbc-48" value="O" style="rounded=0;whiteSpace=wrap;html=1;labelBackgroundColor=#FFFFFF;fontColor=#33001A;" vertex="1" parent="1">
          <mxGeometry x="497.5" y="270" width="27.5" height="40" as="geometry" />
        </mxCell>
        <mxCell id="OYj0gJ4Lvq-_R3bEyNbc-50" value="1" style="text;html=1;strokeColor=none;fillColor=none;align=center;verticalAlign=middle;whiteSpace=wrap;rounded=0;labelBackgroundColor=#FFFFFF;fontColor=#33001A;" vertex="1" parent="1">
          <mxGeometry x="391.25" y="310" width="20" height="20" as="geometry" />
        </mxCell>
        <mxCell id="OYj0gJ4Lvq-_R3bEyNbc-51" value="1" style="text;html=1;strokeColor=none;fillColor=none;align=center;verticalAlign=middle;whiteSpace=wrap;rounded=0;labelBackgroundColor=#FFFFFF;fontColor=#33001A;" vertex="1" parent="1">
          <mxGeometry x="363.75" y="310" width="20" height="20" as="geometry" />
        </mxCell>
        <mxCell id="OYj0gJ4Lvq-_R3bEyNbc-52" value="1" style="text;html=1;strokeColor=none;fillColor=none;align=center;verticalAlign=middle;whiteSpace=wrap;rounded=0;labelBackgroundColor=#FFFFFF;fontColor=#33001A;" vertex="1" parent="1">
          <mxGeometry x="336.25" y="310" width="20" height="20" as="geometry" />
        </mxCell>
        <mxCell id="OYj0gJ4Lvq-_R3bEyNbc-53" value="1" style="text;html=1;strokeColor=none;fillColor=none;align=center;verticalAlign=middle;whiteSpace=wrap;rounded=0;labelBackgroundColor=#FFFFFF;fontColor=#33001A;" vertex="1" parent="1">
          <mxGeometry x="253.75" y="310" width="20" height="20" as="geometry" />
        </mxCell>
        <mxCell id="OYj0gJ4Lvq-_R3bEyNbc-54" value="1" style="text;html=1;strokeColor=none;fillColor=none;align=center;verticalAlign=middle;whiteSpace=wrap;rounded=0;labelBackgroundColor=#FFFFFF;fontColor=#33001A;" vertex="1" parent="1">
          <mxGeometry x="226.25" y="310" width="20" height="20" as="geometry" />
        </mxCell>
        <mxCell id="OYj0gJ4Lvq-_R3bEyNbc-59" value="2" style="ellipse;whiteSpace=wrap;html=1;aspect=fixed;labelBackgroundColor=#FFFFFF;fontColor=#33001A;" vertex="1" parent="1">
          <mxGeometry x="486.25" y="520" width="33.75" height="33.75" as="geometry" />
        </mxCell>
        <mxCell id="OYj0gJ4Lvq-_R3bEyNbc-60" value="A" style="ellipse;whiteSpace=wrap;html=1;aspect=fixed;labelBackgroundColor=#FFFFFF;fontColor=#33001A;" vertex="1" parent="1">
          <mxGeometry x="460" y="565" width="30" height="30" as="geometry" />
        </mxCell>
        <mxCell id="OYj0gJ4Lvq-_R3bEyNbc-61" value="B" style="ellipse;whiteSpace=wrap;html=1;aspect=fixed;labelBackgroundColor=#FFFFFF;fontColor=#33001A;" vertex="1" parent="1">
          <mxGeometry x="517.5" y="565" width="30" height="30" as="geometry" />
        </mxCell>
        <mxCell id="OYj0gJ4Lvq-_R3bEyNbc-67" value="" style="endArrow=classic;html=1;rounded=0;fontColor=#33001A;entryX=0.5;entryY=0;entryDx=0;entryDy=0;exitX=1;exitY=1;exitDx=0;exitDy=0;" edge="1" parent="1" source="OYj0gJ4Lvq-_R3bEyNbc-59" target="OYj0gJ4Lvq-_R3bEyNbc-61">
          <mxGeometry width="50" height="50" relative="1" as="geometry">
            <mxPoint x="520" y="540" as="sourcePoint" />
            <mxPoint x="570" y="490" as="targetPoint" />
          </mxGeometry>
        </mxCell>
        <mxCell id="OYj0gJ4Lvq-_R3bEyNbc-68" value="" style="endArrow=classic;html=1;rounded=0;fontColor=#33001A;entryX=0.5;entryY=0;entryDx=0;entryDy=0;exitX=0;exitY=1;exitDx=0;exitDy=0;" edge="1" parent="1" source="OYj0gJ4Lvq-_R3bEyNbc-59" target="OYj0gJ4Lvq-_R3bEyNbc-60">
          <mxGeometry width="50" height="50" relative="1" as="geometry">
            <mxPoint x="477.5" y="550" as="sourcePoint" />
            <mxPoint x="490" y="575" as="targetPoint" />
          </mxGeometry>
        </mxCell>
        <mxCell id="OYj0gJ4Lvq-_R3bEyNbc-69" value="2" style="ellipse;whiteSpace=wrap;html=1;aspect=fixed;labelBackgroundColor=#FFFFFF;fontColor=#33001A;" vertex="1" parent="1">
          <mxGeometry x="290.63" y="520" width="33.75" height="33.75" as="geometry" />
        </mxCell>
        <mxCell id="OYj0gJ4Lvq-_R3bEyNbc-70" value="W" style="ellipse;whiteSpace=wrap;html=1;aspect=fixed;labelBackgroundColor=#FFFFFF;fontColor=#33001A;" vertex="1" parent="1">
          <mxGeometry x="264.38" y="565" width="30" height="30" as="geometry" />
        </mxCell>
        <mxCell id="OYj0gJ4Lvq-_R3bEyNbc-71" value="E" style="ellipse;whiteSpace=wrap;html=1;aspect=fixed;labelBackgroundColor=#FFFFFF;fontColor=#33001A;" vertex="1" parent="1">
          <mxGeometry x="321.88" y="565" width="30" height="30" as="geometry" />
        </mxCell>
        <mxCell id="OYj0gJ4Lvq-_R3bEyNbc-72" value="" style="endArrow=classic;html=1;rounded=0;fontColor=#33001A;entryX=0.5;entryY=0;entryDx=0;entryDy=0;exitX=1;exitY=1;exitDx=0;exitDy=0;" edge="1" parent="1" source="OYj0gJ4Lvq-_R3bEyNbc-69" target="OYj0gJ4Lvq-_R3bEyNbc-71">
          <mxGeometry width="50" height="50" relative="1" as="geometry">
            <mxPoint x="324.38" y="540" as="sourcePoint" />
            <mxPoint x="374.38" y="490" as="targetPoint" />
          </mxGeometry>
        </mxCell>
        <mxCell id="OYj0gJ4Lvq-_R3bEyNbc-73" value="" style="endArrow=classic;html=1;rounded=0;fontColor=#33001A;entryX=0.5;entryY=0;entryDx=0;entryDy=0;exitX=0;exitY=1;exitDx=0;exitDy=0;" edge="1" parent="1" source="OYj0gJ4Lvq-_R3bEyNbc-69" target="OYj0gJ4Lvq-_R3bEyNbc-70">
          <mxGeometry width="50" height="50" relative="1" as="geometry">
            <mxPoint x="281.88" y="550" as="sourcePoint" />
            <mxPoint x="294.38" y="575" as="targetPoint" />
          </mxGeometry>
        </mxCell>
        <mxCell id="OYj0gJ4Lvq-_R3bEyNbc-74" value="2" style="ellipse;whiteSpace=wrap;html=1;aspect=fixed;labelBackgroundColor=#FFFFFF;fontColor=#33001A;" vertex="1" parent="1">
          <mxGeometry x="385.63" y="520" width="33.75" height="33.75" as="geometry" />
        </mxCell>
        <mxCell id="OYj0gJ4Lvq-_R3bEyNbc-75" value="T" style="ellipse;whiteSpace=wrap;html=1;aspect=fixed;labelBackgroundColor=#FFFFFF;fontColor=#33001A;" vertex="1" parent="1">
          <mxGeometry x="359.38" y="565" width="30" height="30" as="geometry" />
        </mxCell>
        <mxCell id="OYj0gJ4Lvq-_R3bEyNbc-76" value="S" style="ellipse;whiteSpace=wrap;html=1;aspect=fixed;labelBackgroundColor=#FFFFFF;fontColor=#33001A;" vertex="1" parent="1">
          <mxGeometry x="416.88" y="565" width="30" height="30" as="geometry" />
        </mxCell>
        <mxCell id="OYj0gJ4Lvq-_R3bEyNbc-77" value="" style="endArrow=classic;html=1;rounded=0;fontColor=#33001A;entryX=0.5;entryY=0;entryDx=0;entryDy=0;exitX=1;exitY=1;exitDx=0;exitDy=0;" edge="1" parent="1" source="OYj0gJ4Lvq-_R3bEyNbc-74" target="OYj0gJ4Lvq-_R3bEyNbc-76">
          <mxGeometry width="50" height="50" relative="1" as="geometry">
            <mxPoint x="419.38" y="540" as="sourcePoint" />
            <mxPoint x="469.38" y="490" as="targetPoint" />
          </mxGeometry>
        </mxCell>
        <mxCell id="OYj0gJ4Lvq-_R3bEyNbc-78" value="" style="endArrow=classic;html=1;rounded=0;fontColor=#33001A;entryX=0.5;entryY=0;entryDx=0;entryDy=0;exitX=0;exitY=1;exitDx=0;exitDy=0;" edge="1" parent="1" source="OYj0gJ4Lvq-_R3bEyNbc-74" target="OYj0gJ4Lvq-_R3bEyNbc-75">
          <mxGeometry width="50" height="50" relative="1" as="geometry">
            <mxPoint x="376.88" y="550" as="sourcePoint" />
            <mxPoint x="389.38" y="575" as="targetPoint" />
          </mxGeometry>
        </mxCell>
        <mxCell id="OYj0gJ4Lvq-_R3bEyNbc-113" value="3" style="ellipse;whiteSpace=wrap;html=1;aspect=fixed;labelBackgroundColor=#FFFFFF;fontColor=#33001A;" vertex="1" parent="1">
          <mxGeometry x="170" y="470" width="33.75" height="33.75" as="geometry" />
        </mxCell>
        <mxCell id="OYj0gJ4Lvq-_R3bEyNbc-114" value="H" style="ellipse;whiteSpace=wrap;html=1;aspect=fixed;labelBackgroundColor=#FFFFFF;fontColor=#33001A;" vertex="1" parent="1">
          <mxGeometry x="100" y="523.75" width="30" height="30" as="geometry" />
        </mxCell>
        <mxCell id="OYj0gJ4Lvq-_R3bEyNbc-115" value="М" style="ellipse;whiteSpace=wrap;html=1;aspect=fixed;labelBackgroundColor=#FFFFFF;fontColor=#33001A;" vertex="1" parent="1">
          <mxGeometry x="150" y="523.75" width="30" height="30" as="geometry" />
        </mxCell>
        <mxCell id="OYj0gJ4Lvq-_R3bEyNbc-116" value="" style="endArrow=classic;html=1;rounded=0;fontColor=#33001A;entryX=0.5;entryY=0;entryDx=0;entryDy=0;exitX=0.5;exitY=1;exitDx=0;exitDy=0;" edge="1" parent="1" source="OYj0gJ4Lvq-_R3bEyNbc-113" target="OYj0gJ4Lvq-_R3bEyNbc-115">
          <mxGeometry width="50" height="50" relative="1" as="geometry">
            <mxPoint x="134.38" y="490" as="sourcePoint" />
            <mxPoint x="184.38" y="440" as="targetPoint" />
          </mxGeometry>
        </mxCell>
        <mxCell id="OYj0gJ4Lvq-_R3bEyNbc-117" value="" style="endArrow=classic;html=1;rounded=0;fontColor=#33001A;entryX=0.5;entryY=0;entryDx=0;entryDy=0;exitX=0;exitY=1;exitDx=0;exitDy=0;" edge="1" parent="1" source="OYj0gJ4Lvq-_R3bEyNbc-113" target="OYj0gJ4Lvq-_R3bEyNbc-114">
          <mxGeometry width="50" height="50" relative="1" as="geometry">
            <mxPoint x="91.88" y="500" as="sourcePoint" />
            <mxPoint x="104.38" y="525" as="targetPoint" />
          </mxGeometry>
        </mxCell>
        <mxCell id="OYj0gJ4Lvq-_R3bEyNbc-118" value="4" style="ellipse;whiteSpace=wrap;html=1;aspect=fixed;labelBackgroundColor=#FFFFFF;fontColor=#33001A;" vertex="1" parent="1">
          <mxGeometry x="240" y="470" width="33.75" height="33.75" as="geometry" />
        </mxCell>
        <mxCell id="OYj0gJ4Lvq-_R3bEyNbc-123" value="" style="endArrow=classic;html=1;rounded=0;fontColor=#33001A;entryX=0;entryY=0;entryDx=0;entryDy=0;exitX=1;exitY=1;exitDx=0;exitDy=0;" edge="1" parent="1" source="OYj0gJ4Lvq-_R3bEyNbc-118" target="OYj0gJ4Lvq-_R3bEyNbc-69">
          <mxGeometry width="50" height="50" relative="1" as="geometry">
            <mxPoint x="254.94257306747897" y="508.807426932521" as="sourcePoint" />
            <mxPoint x="226.9374269325233" y="534.9425730674767" as="targetPoint" />
          </mxGeometry>
        </mxCell>
        <mxCell id="OYj0gJ4Lvq-_R3bEyNbc-125" value="" style="endArrow=classic;html=1;rounded=0;fontColor=#33001A;entryX=1;entryY=0;entryDx=0;entryDy=0;exitX=0;exitY=1;exitDx=0;exitDy=0;startArrow=none;" edge="1" parent="1" source="OYj0gJ4Lvq-_R3bEyNbc-127" target="OYj0gJ4Lvq-_R3bEyNbc-113">
          <mxGeometry width="50" height="50" relative="1" as="geometry">
            <mxPoint x="226.25257306747864" y="443.8674269325215" as="sourcePoint" />
            <mxPoint x="198.2474269325176" y="470.0025730674826" as="targetPoint" />
          </mxGeometry>
        </mxCell>
        <mxCell id="OYj0gJ4Lvq-_R3bEyNbc-126" value="" style="endArrow=classic;html=1;rounded=0;fontColor=#33001A;entryX=0.5;entryY=0;entryDx=0;entryDy=0;exitX=1;exitY=1;exitDx=0;exitDy=0;" edge="1" parent="1" source="OYj0gJ4Lvq-_R3bEyNbc-127" target="OYj0gJ4Lvq-_R3bEyNbc-118">
          <mxGeometry width="50" height="50" relative="1" as="geometry">
            <mxPoint x="236.25257306747858" y="453.86742693252165" as="sourcePoint" />
            <mxPoint x="208.8074269325175" y="484.9425730674826" as="targetPoint" />
          </mxGeometry>
        </mxCell>
        <mxCell id="OYj0gJ4Lvq-_R3bEyNbc-127" value="7" style="ellipse;whiteSpace=wrap;html=1;aspect=fixed;labelBackgroundColor=#FFFFFF;fontColor=#33001A;" vertex="1" parent="1">
          <mxGeometry x="212.5" y="420" width="33.75" height="33.75" as="geometry" />
        </mxCell>
        <mxCell id="OYj0gJ4Lvq-_R3bEyNbc-129" value="&#39; &#39;" style="ellipse;whiteSpace=wrap;html=1;aspect=fixed;labelBackgroundColor=#FFFFFF;fontColor=#33001A;" vertex="1" parent="1">
          <mxGeometry x="210" y="523.75" width="30" height="30" as="geometry" />
        </mxCell>
        <mxCell id="OYj0gJ4Lvq-_R3bEyNbc-130" value="" style="endArrow=classic;html=1;rounded=0;fontColor=#33001A;entryX=0.5;entryY=0;entryDx=0;entryDy=0;exitX=0;exitY=1;exitDx=0;exitDy=0;" edge="1" parent="1" source="OYj0gJ4Lvq-_R3bEyNbc-118" target="OYj0gJ4Lvq-_R3bEyNbc-129">
          <mxGeometry width="50" height="50" relative="1" as="geometry">
            <mxPoint x="253.75374999999994" y="503.75249999999994" as="sourcePoint" />
            <mxPoint x="233.6" y="523.01" as="targetPoint" />
          </mxGeometry>
        </mxCell>
        <mxCell id="OYj0gJ4Lvq-_R3bEyNbc-131" value="4" style="ellipse;whiteSpace=wrap;html=1;aspect=fixed;labelBackgroundColor=#FFFFFF;fontColor=#33001A;" vertex="1" parent="1">
          <mxGeometry x="439.37" y="470" width="33.75" height="33.75" as="geometry" />
        </mxCell>
        <mxCell id="OYj0gJ4Lvq-_R3bEyNbc-132" value="" style="endArrow=classic;html=1;rounded=0;fontColor=#33001A;entryX=0;entryY=0;entryDx=0;entryDy=0;exitX=0.81;exitY=0.902;exitDx=0;exitDy=0;exitPerimeter=0;" edge="1" parent="1" source="OYj0gJ4Lvq-_R3bEyNbc-131" target="OYj0gJ4Lvq-_R3bEyNbc-59">
          <mxGeometry width="50" height="50" relative="1" as="geometry">
            <mxPoint x="459.99742693252455" y="507.55742693252455" as="sourcePoint" />
            <mxPoint x="477.44" y="523.75" as="targetPoint" />
          </mxGeometry>
        </mxCell>
        <mxCell id="OYj0gJ4Lvq-_R3bEyNbc-133" value="" style="endArrow=classic;html=1;rounded=0;fontColor=#33001A;entryX=0.841;entryY=0.114;entryDx=0;entryDy=0;exitX=0;exitY=1;exitDx=0;exitDy=0;entryPerimeter=0;" edge="1" parent="1" source="OYj0gJ4Lvq-_R3bEyNbc-131" target="OYj0gJ4Lvq-_R3bEyNbc-74">
          <mxGeometry width="50" height="50" relative="1" as="geometry">
            <mxPoint x="422.3975000000001" y="503.7525" as="sourcePoint" />
            <mxPoint x="446.8825730674757" y="528.2525730674756" as="targetPoint" />
          </mxGeometry>
        </mxCell>
        <mxCell id="OYj0gJ4Lvq-_R3bEyNbc-137" value="6" style="ellipse;whiteSpace=wrap;html=1;aspect=fixed;labelBackgroundColor=#FFFFFF;fontColor=#33001A;" vertex="1" parent="1">
          <mxGeometry x="570" y="470" width="33.75" height="33.75" as="geometry" />
        </mxCell>
        <mxCell id="OYj0gJ4Lvq-_R3bEyNbc-138" value="C" style="ellipse;whiteSpace=wrap;html=1;aspect=fixed;labelBackgroundColor=#FFFFFF;fontColor=#33001A;" vertex="1" parent="1">
          <mxGeometry x="540" y="523.75" width="30" height="30" as="geometry" />
        </mxCell>
        <mxCell id="OYj0gJ4Lvq-_R3bEyNbc-139" value="O" style="ellipse;whiteSpace=wrap;html=1;aspect=fixed;labelBackgroundColor=#FFFFFF;fontColor=#33001A;" vertex="1" parent="1">
          <mxGeometry x="597.5" y="523.75" width="30" height="30" as="geometry" />
        </mxCell>
        <mxCell id="OYj0gJ4Lvq-_R3bEyNbc-140" value="" style="endArrow=classic;html=1;rounded=0;fontColor=#33001A;entryX=0.5;entryY=0;entryDx=0;entryDy=0;exitX=1;exitY=1;exitDx=0;exitDy=0;" edge="1" parent="1" source="OYj0gJ4Lvq-_R3bEyNbc-137" target="OYj0gJ4Lvq-_R3bEyNbc-139">
          <mxGeometry width="50" height="50" relative="1" as="geometry">
            <mxPoint x="600" y="498.75" as="sourcePoint" />
            <mxPoint x="650" y="448.75" as="targetPoint" />
          </mxGeometry>
        </mxCell>
        <mxCell id="OYj0gJ4Lvq-_R3bEyNbc-141" value="" style="endArrow=classic;html=1;rounded=0;fontColor=#33001A;entryX=0.5;entryY=0;entryDx=0;entryDy=0;exitX=0;exitY=1;exitDx=0;exitDy=0;" edge="1" parent="1" source="OYj0gJ4Lvq-_R3bEyNbc-137" target="OYj0gJ4Lvq-_R3bEyNbc-138">
          <mxGeometry width="50" height="50" relative="1" as="geometry">
            <mxPoint x="557.5" y="508.75" as="sourcePoint" />
            <mxPoint x="570" y="533.75" as="targetPoint" />
          </mxGeometry>
        </mxCell>
        <mxCell id="OYj0gJ4Lvq-_R3bEyNbc-145" value="10" style="ellipse;whiteSpace=wrap;html=1;aspect=fixed;labelBackgroundColor=#FFFFFF;fontColor=#33001A;" vertex="1" parent="1">
          <mxGeometry x="506.25" y="420" width="33.75" height="33.75" as="geometry" />
        </mxCell>
        <mxCell id="OYj0gJ4Lvq-_R3bEyNbc-147" value="" style="endArrow=classic;html=1;rounded=0;fontColor=#33001A;entryX=0.095;entryY=0.142;entryDx=0;entryDy=0;exitX=1;exitY=1;exitDx=0;exitDy=0;entryPerimeter=0;" edge="1" parent="1" source="OYj0gJ4Lvq-_R3bEyNbc-145" target="OYj0gJ4Lvq-_R3bEyNbc-137">
          <mxGeometry width="50" height="50" relative="1" as="geometry">
            <mxPoint x="539.9974269325253" y="445.0574269325251" as="sourcePoint" />
            <mxPoint x="553.6900000000003" y="470" as="targetPoint" />
          </mxGeometry>
        </mxCell>
        <mxCell id="OYj0gJ4Lvq-_R3bEyNbc-148" value="" style="endArrow=classic;html=1;rounded=0;fontColor=#33001A;entryX=1;entryY=0;entryDx=0;entryDy=0;exitX=0;exitY=1;exitDx=0;exitDy=0;" edge="1" parent="1" source="OYj0gJ4Lvq-_R3bEyNbc-145" target="OYj0gJ4Lvq-_R3bEyNbc-131">
          <mxGeometry width="50" height="50" relative="1" as="geometry">
            <mxPoint x="545.057426932525" y="458.807426932525" as="sourcePoint" />
            <mxPoint x="583.20625" y="484.7925" as="targetPoint" />
          </mxGeometry>
        </mxCell>
        <mxCell id="OYj0gJ4Lvq-_R3bEyNbc-149" value="17" style="ellipse;whiteSpace=wrap;html=1;aspect=fixed;labelBackgroundColor=#FFFFFF;fontColor=#33001A;" vertex="1" parent="1">
          <mxGeometry x="351.88" y="370" width="33.75" height="33.75" as="geometry" />
        </mxCell>
        <mxCell id="OYj0gJ4Lvq-_R3bEyNbc-150" value="" style="endArrow=classic;html=1;rounded=0;fontColor=#33001A;entryX=1;entryY=0;entryDx=0;entryDy=0;exitX=0;exitY=1;exitDx=0;exitDy=0;" edge="1" parent="1" source="OYj0gJ4Lvq-_R3bEyNbc-149" target="OYj0gJ4Lvq-_R3bEyNbc-127">
          <mxGeometry width="50" height="50" relative="1" as="geometry">
            <mxPoint x="521.1925730674748" y="458.80742693252535" as="sourcePoint" />
            <mxPoint x="478.1774269325249" y="484.942573067475" as="targetPoint" />
          </mxGeometry>
        </mxCell>
        <mxCell id="OYj0gJ4Lvq-_R3bEyNbc-151" value="" style="endArrow=classic;html=1;rounded=0;fontColor=#33001A;entryX=0;entryY=0;entryDx=0;entryDy=0;exitX=1;exitY=1;exitDx=0;exitDy=0;" edge="1" parent="1" source="OYj0gJ4Lvq-_R3bEyNbc-149" target="OYj0gJ4Lvq-_R3bEyNbc-145">
          <mxGeometry width="50" height="50" relative="1" as="geometry">
            <mxPoint x="366.8225730674749" y="408.80742693252535" as="sourcePoint" />
            <mxPoint x="251.30742693252125" y="434.942573067479" as="targetPoint" />
          </mxGeometry>
        </mxCell>
      </root>
    </mxGraphModel>
  </diagram>
</mxfile>
